<svg id="Layer_1" data-name="Layer 1" xmlns="http://www.w3.org/2000/svg" viewBox="0 0 856.2 856.2"><defs><style>.cls-1{fill:#190842;}.cls-2{fill:#fff;}</style></defs><path id="Second_Icon:_260c47" data-name="Second Icon: #260c47" class="cls-1" d="M956.64,946.7H302.16c-55.47,0-100.86-45.39-100.86-100.86V191.36c0-55.47,45.39-100.86,100.86-100.86H956.64c55.47,0,100.86,45.39,100.86,100.86V845.84C1057.5,901.31,1012.11,946.7,956.64,946.7Z" transform="translate(-201.3 -90.5)"/><path id="User_Access" data-name="User Access" class="cls-2" d="M528.66,507.75c68.61,0,124.23-53.44,124.23-119.37S597.27,269,528.66,269,404.42,322.45,404.42,388.38,460,507.75,528.66,507.75Zm93.18,59.69A57,57,0,0,1,629.7,539c-4.66-.47-9.22-1.4-14.08-1.4H599.41a175.26,175.26,0,0,1-141.51,0H441.69c-72,0-130.43,56.12-130.45,125.34v38.79c0,24.72,20.86,44.77,46.59,44.77H630.47a57.52,57.52,0,0,1-8.63-29.85ZM901.37,537.6H870.31V463c0-41.21-34.76-74.61-77.65-74.61S715,421.78,715,463V537.6H684c-17.15,0-31.06,13.36-31.06,29.84V716.65c0,16.49,13.91,29.85,31.06,29.85H901.37c17.15,0,31.06-13.36,31.06-29.85V567.44C932.43,551,918.52,537.6,901.37,537.6ZM792.66,671.89c-17.15,0-31.06-13.36-31.06-29.84s13.91-29.85,31.06-29.85,31.06,13.36,31.06,29.85S809.82,671.89,792.66,671.89ZM823.72,537.6H761.6V463c0-16.48,13.91-29.84,31.06-29.84s31.06,13.36,31.06,29.84Z" transform="translate(-201.3 -90.5)"/></svg>