<svg id="Layer_1" data-name="Layer 1" xmlns="http://www.w3.org/2000/svg" viewBox="0 0 856.2 856.2"><defs><style>.cls-1{fill:#9b0b57;}.cls-2,.cls-3{fill:#fff;}.cls-2{opacity:0.4;isolation:isolate;}</style></defs><path id="Fifth_Icon:_9B0B57" data-name="Fifth Icon: #9B0B57" class="cls-1" d="M956.64,946.7H302.16c-55.47,0-100.86-45.39-100.86-100.86V191.36c0-55.47,45.39-100.86,100.86-100.86H956.64c55.47,0,100.86,45.39,100.86,100.86V845.84C1057.5,901.31,1012.11,946.7,956.64,946.7Z" transform="translate(-201.3 -90.5)"/><g id="Beta"><path class="cls-2" d="M513.53,591.05H735.25l94.09,132.78a6.51,6.51,0,0,1,.12,8.06,8.08,8.08,0,0,1-7.59,4h-395a8.07,8.07,0,0,1-7.6-3.92,6.57,6.57,0,0,1,.14-8.13Z" transform="translate(-201.3 -90.5)"/><path class="cls-3" d="M479.9,301.24h289c11.4,0,20.64-8.11,20.64-18.11V246.9c0-10-9.24-18.11-20.64-18.11h-289c-11.4,0-20.65,8.11-20.65,18.11v36.23C459.25,293.13,468.5,301.24,479.9,301.24ZM899.47,685.58,748.27,472.19V337.47H665.69v155.4L829.36,723.81a6.52,6.52,0,0,1,.11,8.06,8.08,8.08,0,0,1-7.58,4h-395a8.07,8.07,0,0,1-7.6-3.9,6.57,6.57,0,0,1,.14-8.13l163.72-231V337.47H500.54V472.19L349.31,685.58c-37.8,53.32,5.81,122.83,77.55,122.83H821.92c71.87,0,115.35-69.62,77.55-122.83Z" transform="translate(-201.3 -90.5)"/></g></svg>