<svg id="Layer_1" data-name="Layer 1" xmlns="http://www.w3.org/2000/svg" viewBox="0 0 856.2 856.2"><defs><style>.cls-1{fill:#421872;}.cls-2{fill:#fff;}</style></defs><path id="Third_Icon:_320A51" data-name="Third Icon: #320A51" class="cls-1" d="M956.64,946.7H302.16c-55.47,0-100.86-45.39-100.86-100.86V191.36c0-55.47,45.39-100.86,100.86-100.86H956.64c55.47,0,100.86,45.39,100.86,100.86V845.84C1057.5,901.31,1012.11,946.7,956.64,946.7Z" transform="translate(-201.3 -90.5)"/><path id="Caching" class="cls-2" d="M743.94,569.51V298c0-28.12-25.64-50.91-57.27-50.91H381.22C349.59,247.07,324,269.86,324,298V569.51c0,28.12,25.64,50.91,57.27,50.91H686.67C718.3,620.42,743.94,597.63,743.94,569.51ZM381.22,298H686.67V569.51H381.22Zm496.36,118.8H782.13v50.91h95.45V739.22H572.13V654.37H514.86v84.85c0,28.12,25.64,50.91,57.27,50.91H877.58c31.63,0,57.27-22.79,57.27-50.91h0V467.69C934.85,439.57,909.21,416.78,877.58,416.78ZM610.31,688.31c0,9.37,8.55,17,19.09,17H820.31c10.54,0,19.09-7.6,19.09-17V518.6c0-9.37-8.55-17-19.09-17H782.13V654.37H610.31Z" transform="translate(-201.3 -90.5)"/></svg>