<svg id="Layer_1" data-name="Layer 1" xmlns="http://www.w3.org/2000/svg" viewBox="0 0 856.2 856.2"><defs><style>.cls-1{fill:#190842;}.cls-2{fill:#f8f8f8;}</style></defs><path id="Second_Icon:_260c47" data-name="Second Icon: #260c47" class="cls-1" d="M956.64,946.7H302.16c-55.47,0-100.86-45.39-100.86-100.86V191.36c0-55.47,45.39-100.86,100.86-100.86H956.64c55.47,0,100.86,45.39,100.86,100.86V845.84C1057.5,901.31,1012.11,946.7,956.64,946.7Z" transform="translate(-201.3 -90.5)"/><path id="Code_Cleaner" data-name="Code Cleaner" class="cls-2" d="M566.9,462.88l86.7,109.2S637,674.48,577,722.18s-266.6,34.1-266.6,34.1,3.8-23.1,11-55.4L416,588.68a6,6,0,0,0-6.6-9.5L349,601.28c14.4-41.7,32.7-80,54.6-97.5,59.9-47.7,163.3-40.9,163.3-40.9Zm380-185.8-19.9-25a15.92,15.92,0,0,0-22.4-2.6L672.2,427.38l-34.1-43a11,11,0,0,0-18.6,2.2l-25.3,54.6,86.6,109.1,58.8-12.5a11,11,0,0,0,6.3-17.6l-34-42.8,232.5-177.8a16,16,0,0,0,2.5-22.5Z" transform="translate(-201.3 -90.5)"/></svg>