<svg id="Layer_1" data-name="Layer 1" xmlns="http://www.w3.org/2000/svg" viewBox="0 0 856.2 856.2"><defs><style>.cls-1{fill:#681051;}.cls-2{fill:#fff;}</style></defs><path id="Fourth_Icon:_681051" data-name="Fourth Icon: #681051" class="cls-1" d="M956.64,946.7H302.16c-55.47,0-100.86-45.39-100.86-100.86V191.36c0-55.47,45.39-100.86,100.86-100.86H956.64c55.47,0,100.86,45.39,100.86,100.86V845.84C1057.5,901.31,1012.11,946.7,956.64,946.7Z" transform="translate(-201.3 -90.5)"/><path id="CDN" class="cls-2" d="M629.4,241.56c-160,0-289.72,124-289.72,277s129.67,277,289.72,277,289.72-124,289.72-277S789.45,241.56,629.4,241.56ZM592,298.3v12.63c0,13.29-14.61,21.89-27.11,16l-28-13.4A244.17,244.17,0,0,1,592,298.3ZM629.4,711.41V742c-128.85,0-233.64-100.2-233.64-223.42a214.33,214.33,0,0,1,20.56-91.27c11.56,16.42,29.44,41.78,40.42,57.09a126.2,126.2,0,0,0,21.14,23.12l.94.78a170.46,170.46,0,0,0,36.91,24.36c16.36,7.82,40.19,20.33,57,29.15A35.37,35.37,0,0,1,592,593.11v35.75a34.94,34.94,0,0,0,11,25.25C620.52,671,631.39,697.34,629.4,711.41Zm49.88,25.36,20.33-52.39c2.34-6.14,3.86-12.51,5.61-18.88a26.71,26.71,0,0,1,7.24-12l13.2-12.63a50.67,50.67,0,0,0,16-36.86,33.41,33.41,0,0,0-10.4-24.13l-16-15.3a38.17,38.17,0,0,0-26.4-10.51H610.71c-11-5.25-25.12-35.74-37.38-35.74a82.29,82.29,0,0,1-35.4-8.05l-13-6.14a13.12,13.12,0,0,1,1.87-24.58L563.28,468a19.16,19.16,0,0,1,18.11,3.47l10.86,9.05a9.46,9.46,0,0,0,6.08,2.23h6.54c7,0,11.45-7,8.41-13l-18.23-34.85a8.58,8.58,0,0,1,1.87-10.39l11.57-10.73a9.42,9.42,0,0,1,6.54-2.56h10.51a9.71,9.71,0,0,0,6.66-2.57l9.35-8.94a8.69,8.69,0,0,0,0-12.62l-5.49-5.26a8.69,8.69,0,0,1,0-12.62l12-11.5,5.49-5.26a17.36,17.36,0,0,0,0-25.24l-33.06-31.62c2.92-.11,5.84-.44,8.88-.44,91.35,0,170.33,50.49,208.76,123.66L823,426.1a28.61,28.61,0,0,0-10.74,9L789.33,468a25.7,25.7,0,0,0,0,29.72l21,30.16A28.28,28.28,0,0,0,826.83,539l34.11,8.16C848.32,641,774.61,716.89,679.28,736.77Z" transform="translate(-201.3 -90.5)"/></svg>