<svg id="Layer_1" data-name="Layer 1" xmlns="http://www.w3.org/2000/svg" viewBox="0 0 856.2 856.2"><defs><style>.cls-1{fill:#212121;}.cls-2{fill:#fff;}</style></defs><path id="First_Icon:_212121" data-name="First Icon: #212121" class="cls-1" d="M956.64,946.7H302.16c-55.47,0-100.86-45.39-100.86-100.86V191.36c0-55.47,45.39-100.86,100.86-100.86H956.64c55.47,0,100.86,45.39,100.86,100.86V845.84C1057.5,901.31,1012.11,946.7,956.64,946.7Z" transform="translate(-201.3 -90.5)"/><path id="Code_Manager" data-name="Code Manager" class="cls-2" d="M585.56,749.41l-57.41-16.5a11.21,11.21,0,0,1-7.72-13.9L648.9,280.47a11.32,11.32,0,0,1,14-7.65l57.41,16.51a11.21,11.21,0,0,1,7.72,13.9L599.58,741.77A11.29,11.29,0,0,1,585.56,749.41ZM478.27,644.77l40.94-43.28a11.12,11.12,0,0,0-.75-16l-85.27-74.33,85.27-74.33a11.06,11.06,0,0,0,.75-16.05l-40.94-43.27a11.38,11.38,0,0,0-16-.47L326.65,502.91a11,11,0,0,0,0,16.32l135.62,126a11.29,11.29,0,0,0,16-.47Zm307.94.56,135.62-126a11.06,11.06,0,0,0,0-16.33L786.21,376.91a11.47,11.47,0,0,0-16,.47l-40.94,43.27a11.12,11.12,0,0,0,.76,16l85.26,74.43L730,585.45a11,11,0,0,0-.76,16l40.94,43.28a11.38,11.38,0,0,0,16,.56Z" transform="translate(-201.3 -90.5)"/></svg>