<svg id="Layer_1" data-name="Layer 1" xmlns="http://www.w3.org/2000/svg" viewBox="0 0 856.2 856.2"><defs><style>.cls-1{fill:#9b0b57;}.cls-2{fill:#fff;}</style></defs><path id="Fifth_Icon:_9B0B57" data-name="Fifth Icon: #9B0B57" class="cls-1" d="M956.64,946.7H302.16c-55.47,0-100.86-45.39-100.86-100.86V191.36c0-55.47,45.39-100.86,100.86-100.86H956.64c55.47,0,100.86,45.39,100.86,100.86V845.84C1057.5,901.31,1012.11,946.7,956.64,946.7Z" transform="translate(-201.3 -90.5)"/><path id="CSS" class="cls-2" d="M932,255,851,691.35,568.33,786.2,324.44,691.35,349.25,579H453l-10.12,48.13,147.32,52.65L760,627.08,783.75,512h-422L382,414.73H804.38l13.29-62.48h-422L416.33,255Z" transform="translate(-201.3 -90.5)"/></svg>