<svg id="Layer_1" data-name="Layer 1" xmlns="http://www.w3.org/2000/svg" viewBox="0 0 856.2 856.2"><defs><style>.cls-1{fill:#212121;}.cls-2{fill:#fff;}</style></defs><path id="First_Icon:_212121" data-name="First Icon: #212121" class="cls-1" d="M956.64,946.7H302.16c-55.47,0-100.86-45.39-100.86-100.86V191.36c0-55.47,45.39-100.86,100.86-100.86H956.64c55.47,0,100.86,45.39,100.86,100.86V845.84C1057.5,901.31,1012.11,946.7,956.64,946.7Z" transform="translate(-201.3 -90.5)"/><path id="Dashing" class="cls-2" d="M775.66,613.37V405.71c0-24.58-20.62-44.5-46-44.5H514.7c-25.43,0-46.05,19.92-46.05,44.5V613.37c0,24.58,20.62,44.5,46.05,44.5H729.61C755,657.87,775.66,638,775.66,613.37Zm-261-207.66H729.61V613.37H514.7Zm-153.5-89H514.7v14.83h46V316.71c0-24.58-20.61-44.5-46-44.5H361.2c-25.43,0-46.05,19.92-46.05,44.5V465c0,24.58,20.62,44.5,46.05,44.5H438V465H361.2ZM883.11,509.54H806.36V554h76.75V702.37H729.61V687.54H683.56v14.83c0,24.58,20.62,44.5,46.05,44.5h153.5c25.44,0,46-19.92,46-44.5h0V554C929.16,529.46,908.55,509.54,883.11,509.54Zm-475.86-89H438V405.71a71.88,71.88,0,0,1,15.74-44.5H407.25Zm429.81,178h-30.7v14.83a71.88,71.88,0,0,1-15.74,44.5h46.44Z" transform="translate(-201.3 -90.5)"/></svg>