<svg id="Layer_1" data-name="Layer 1" xmlns="http://www.w3.org/2000/svg" viewBox="0 0 856.2 856.2"><defs><style>.cls-1{fill:#190842;}.cls-2{fill:#c9c9c9;opacity:0.4;isolation:isolate;}.cls-3{fill:#fff;}</style></defs><path id="Second_Icon:_260c47" data-name="Second Icon: #260c47" class="cls-1" d="M956.64,946.7H302.16c-55.47,0-100.86-45.39-100.86-100.86V191.36c0-55.47,45.39-100.86,100.86-100.86H956.64c55.47,0,100.86,45.39,100.86,100.86V845.84C1057.5,901.31,1012.11,946.7,956.64,946.7Z" transform="translate(-201.3 -90.5)"/><g id="Data_Handling" data-name="Data Handling"><path class="cls-2" d="M886.26,328.27v47.59C886.26,417.78,769,452,624.4,452s-261.86-34.21-261.86-76.13V328.27c0-41.93,117.29-76.13,261.86-76.13S886.26,286.34,886.26,328.27Z" transform="translate(-201.3 -90.5)"/><path class="cls-3" d="M362.54,601.87V708.93c0,41.93,117.29,76.13,261.86,76.13s261.86-34.2,261.86-76.13V601.87C830,636.36,727,652.42,624.4,652.42S418.79,636.36,362.54,601.87Zm261.86-116c-102.63,0-205.61-16.06-261.86-50.56V542.39c0,41.93,117.29,76.13,261.86,76.13s261.86-34.2,261.86-76.13V435.33C830,469.83,727,485.89,624.4,485.89Z" transform="translate(-201.3 -90.5)"/></g></svg>