<svg id="Layer_1" data-name="Layer 1" xmlns="http://www.w3.org/2000/svg" viewBox="0 0 856.2 856.2"><defs><style>.cls-1{fill:#ef5ea0;}.cls-2{fill:#ededed;opacity:0.4;isolation:isolate;}.cls-3{fill:#fff;}</style></defs><path id="Seventh_Icon:_E02424" data-name="Seventh Icon: #E02424" class="cls-1" d="M956.54,946.7H302.06c-55.47,0-100.86-45.39-100.86-100.86V191.36c0-55.47,45.39-100.86,100.86-100.86H956.54c55.47,0,100.86,45.39,100.86,100.86V845.84C1057.4,901.31,1012,946.7,956.54,946.7Z" transform="translate(-201.2 -90.5)"/><g id="Font_Handling" data-name="Font Handling"><path class="cls-2" d="M939.07,414.09H906.48c-9,0-16.3,7.8-16.3,17.42v2c-19.25-12-41.34-19.39-65.2-19.39-72,.09-130.31,62.42-130.39,139.35v34.83C694.67,665.19,753,727.53,825,727.62c23.86,0,45.95-7.38,65.2-19.39v2c0,9.62,7.3,17.42,16.3,17.42h32.59c9,0,16.3-7.8,16.3-17.42V431.51C955.37,421.89,948.08,414.09,939.07,414.09ZM873.88,588.27c0,28.86-21.89,52.26-48.9,52.26s-48.89-23.4-48.89-52.26V553.44c0-28.86,21.89-52.26,48.89-52.26s48.9,23.4,48.9,52.26Z" transform="translate(-201.2 -90.5)"/><path class="cls-3" d="M537.59,333.2c-4.49-14.13-16.91-23.62-30.86-23.62h-48c-14,0-26.37,9.49-30.87,23.62L304.28,704.64c-2.87,9.11,1.71,19,10.24,22.06a15.44,15.44,0,0,0,5.2.92h51.56c7,0,13.21-4.78,15.45-11.86l19.42-57.82H559.26l19.43,57.82a16.42,16.42,0,0,0,15.44,11.86h51.56c9,0,16.3-7.8,16.3-17.42a18.65,18.65,0,0,0-.85-5.56ZM435.42,570.85l47.29-140.71L530,570.85Z" transform="translate(-201.2 -90.5)"/></g></svg>