<svg id="Layer_1" data-name="Layer 1" xmlns="http://www.w3.org/2000/svg" viewBox="0 0 856.2 856.2"><defs><style>.cls-1{fill:#212121;}.cls-2{fill:#fff;}</style></defs><path id="First_Icon:_212121" data-name="First Icon: #212121" class="cls-1" d="M956.64,946.7H302.16c-55.47,0-100.86-45.39-100.86-100.86V191.36c0-55.47,45.39-100.86,100.86-100.86H956.64c55.47,0,100.86,45.39,100.86,100.86V845.84C1057.5,901.31,1012.11,946.7,956.64,946.7Z" transform="translate(-201.3 -90.5)"/><path id="Performance_Audit" data-name="Performance Audit" class="cls-2" d="M748.76,497.22a34.51,34.51,0,1,0-34.59-34.51A34.55,34.55,0,0,0,748.76,497.22ZM454.76,549a34.51,34.51,0,1,0,34.58,34.51A34.55,34.55,0,0,0,454.76,549ZM627.7,445.46a34.52,34.52,0,1,0-34.59-34.52A34.56,34.56,0,0,0,627.7,445.46ZM795.54,558.12l-110.11,22A69.16,69.16,0,0,0,558.52,618a68.22,68.22,0,0,0,9.6,34.51H687.29A70.4,70.4,0,0,0,695.05,631l110.7-22.08a25.89,25.89,0,1,0-10.21-50.76ZM506.64,428.2a34.51,34.51,0,1,0,34.59,34.51A34.56,34.56,0,0,0,506.64,428.2ZM627.7,272.9C455.77,272.9,316.4,412,316.4,583.5a308.4,308.4,0,0,0,42.22,156.16c6.06,10.38,17.62,16.4,29.66,16.4H867.12c12,0,23.6-6,29.66-16.4A308.4,308.4,0,0,0,939,583.5C939,412,799.63,272.9,627.7,272.9ZM857.14,704.29H398.26a258.2,258.2,0,0,1-30-120.79c0-142.72,116.37-258.83,259.42-258.83S887.12,440.78,887.12,583.5a258.2,258.2,0,0,1-30,120.79Z" transform="translate(-201.3 -90.5)"/></svg>