<svg id="Layer_1" data-name="Layer 1" xmlns="http://www.w3.org/2000/svg" viewBox="0 0 856.2 856.2"><defs><style>.cls-1{fill:#f46ca4;}.cls-2{opacity:0.4;isolation:isolate;}.cls-3{fill:#fff;}</style></defs><path id="Fifth_Icon:_9B0B57" data-name="Fifth Icon: #9B0B57" class="cls-1" d="M955.49,933H301c-55.47,0-100.86-45.39-100.86-100.86V177.64c0-55.47,45.39-100.86,100.86-100.86H955.49c55.47,0,100.86,45.39,100.86,100.86V832.12C1056.35,887.59,1011,933,955.49,933Z" transform="translate(-200.15 -76.78)"/><path class="cls-2" d="M407.93,590.92c-25.86,25.85-38.63,90.53-35.11,159.34,69.11,3.56,133.59-9.35,159.34-35.1,40.29-40.28,42.88-94,6.31-130.55S448.21,550.64,407.93,590.92ZM502.88,672c-10.73,10.74-37.6,16.12-66.4,14.63-1.46-28.67,3.86-55.62,14.63-66.4,16.79-16.78,39.17-17.86,54.4-2.62s14.16,37.61-2.63,54.39ZM424.19,393.34l-49.41,98.81a28.1,28.1,0,0,0-2.53,10.7,24,24,0,0,0,24,24h93.46c23.44-47.41,61-123.37,77.89-157.32l1.52-2.68H467.07C450.72,366.87,431.54,378.73,424.19,393.34ZM753.58,555.43c-34,17-110.06,54.68-157.33,78.07v93.56a24.12,24.12,0,0,0,24,23.79,28.08,28.08,0,0,0,10.62-2.53l98.73-49.39c14.62-7.31,26.5-26.5,26.5-42.86V554.56l.19-.13v-.53Z" transform="translate(-200.15 -76.78)"/><path class="cls-3" d="M877.41,258.37a16.75,16.75,0,0,0-12.54-12.57c-32.4-7-58.25-7-83.14-7-89.15,0-156.67,40.62-212.51,127.82l-1.62,2.86c-16.88,34-54.45,109.91-77.89,157.32h10.54a96,96,0,0,1,96,96h0V633.5c47.27-23.39,123.37-61.07,157.33-78.07l2.79-1.6c87.24-56.06,127.86-123.51,127.86-212.28C884.31,316.46,884.38,290.94,877.41,258.37ZM740.25,430.85a48,48,0,1,1,48-48A48,48,0,0,1,740.25,430.85ZM451.11,620.2C440.34,631,435,657.93,436.48,686.6c28.8,1.49,55.67-3.89,66.4-14.63,16.79-16.78,17.86-39.16,2.63-54.39S467.9,603.42,451.11,620.2Z" transform="translate(-200.15 -76.78)"/></svg>