<svg id="Layer_1" data-name="Layer 1" xmlns="http://www.w3.org/2000/svg" viewBox="0 0 856.2 856.2"><defs><style>.cls-1{fill:#d83276;}.cls-2{fill:#fff;}</style></defs><path id="Sixth_Icon:_91063F" data-name="Sixth Icon: #91063F" class="cls-1" d="M956.54,946.7H302.06c-55.47,0-100.86-45.39-100.86-100.86V191.36c0-55.47,45.39-100.86,100.86-100.86H956.54c55.47,0,100.86,45.39,100.86,100.86V845.84C1057.4,901.31,1012,946.7,956.54,946.7Z" transform="translate(-201.2 -90.5)"/><path id="Javascript" class="cls-2" d="M579.6,610.08c0,98.22-53.74,143-132,143-70.74,0-111.68-39.2-132.67-86.73l72-46.63c13.85,26.36,26.45,48.66,56.89,48.66,29,0,47.44-12.17,47.44-59.7V286.37H579.6V610.08Zm209.08,143c-82.08,0-135.19-41.9-161-96.87l72-44.6c18.9,33.11,43.67,57.67,87.12,57.67,36.53,0,60-19.6,60-46.86,0-32.44-23.93-43.92-64.45-63.07l-22-10.14c-63.81-29.06-106-65.78-106-143C654.33,335,704.92,281,783.64,281c56.26,0,96.57,20.95,125.54,75.91l-68.86,47.31c-15.11-29.06-31.48-40.55-56.89-40.55-25.82,0-42.19,17.57-42.19,40.55,0,28.38,16.37,39.87,54.37,57.67l22,10.13C892.81,506.46,935,541.83,935,621.12c0,85.15-62.56,132-146.32,132Z" transform="translate(-201.2 -90.5)"/></svg>