<svg id="Layer_1" data-name="Layer 1" xmlns="http://www.w3.org/2000/svg" viewBox="0 0 856.2 856.2"><defs><style>.cls-1{fill:#212121;}.cls-2{fill:#fff;}</style></defs><path id="First_Icon:_212121" data-name="First Icon: #212121" class="cls-1" d="M956.64,946.7H302.16c-55.47,0-100.86-45.39-100.86-100.86V191.36c0-55.47,45.39-100.86,100.86-100.86H956.64c55.47,0,100.86,45.39,100.86,100.86V845.84C1057.5,901.31,1012.11,946.7,956.64,946.7Z" transform="translate(-201.3 -90.5)"/><path id="License" class="cls-2" d="M520.34,484a14.64,14.64,0,0,0-19.79-.11l-26.44,24.83a12.86,12.86,0,0,0-.11,18.76l105.73,101a14.64,14.64,0,0,0,19.79.11l201-189a12.87,12.87,0,0,0,.12-18.76l-26.2-25.06a14.67,14.67,0,0,0-19.8-.11L590,550.45ZM873.51,322l-223.57-88.3a59,59,0,0,0-43,0L383.41,322c-20.85,8.16-34.47,27.48-34.47,48.89,0,219.08,133.33,370.5,257.92,419.73a58.91,58.91,0,0,0,43,0c99.79-39.4,258-175.49,258-419.73C907.86,349.47,894.24,330.15,873.51,322ZM628.4,741.72c-113.53-44.81-223.57-184-223.57-370.84L628.4,282.59,852,370.88C852,562.7,737.39,698.67,628.4,741.72Z" transform="translate(-201.3 -90.5)"/></svg>