<svg id="Layer_1" data-name="Layer 1" xmlns="http://www.w3.org/2000/svg" viewBox="0 0 856.2 856.2"><defs><style>.cls-1{fill:#ffa1d0;}.cls-2{fill:#f8f8f8;}</style></defs><path id="Eighth_Icon:_FF6EB5" data-name="Eighth Icon: #FF6EB5" class="cls-1" d="M956.54,946.7H302.06c-55.47,0-100.86-45.39-100.86-100.86V191.36c0-55.47,45.39-100.86,100.86-100.86H956.54c55.47,0,100.86,45.39,100.86,100.86V845.84C1057.4,901.31,1012,946.7,956.54,946.7Z" transform="translate(-201.2 -90.5)"/><path id="Lazy_Load" data-name="Lazy Load" class="cls-2" d="M900,260.6H474.4c-16.82,0-30.4,14.3-30.4,32v96H596v-64H778.4v320H900c16.81,0,30.4-14.3,30.4-32v-320C930.4,274.9,916.72,260.6,900,260.6Zm-357.2,103a8.75,8.75,0,0,1-8.55,9h-28.5a8.75,8.75,0,0,1-8.55-9h0v-30a8.75,8.75,0,0,1,8.55-9h28.5a8.75,8.75,0,0,1,8.55,9Zm334.4,208a8.75,8.75,0,0,1-8.55,9h-28.5a8.75,8.75,0,0,1-8.55-9v-30a8.75,8.75,0,0,1,8.55-9h28.5a8.75,8.75,0,0,1,8.55,9Zm0-104a8.75,8.75,0,0,1-8.55,9h-28.5a8.75,8.75,0,0,1-8.55-9v-30a8.75,8.75,0,0,1,8.55-9h28.5a8.75,8.75,0,0,1,8.55,9Zm0-104a8.75,8.75,0,0,1-8.55,9h-28.5a8.75,8.75,0,0,1-8.55-9h0v-30a8.75,8.75,0,0,1,8.55-9h28.5a8.75,8.75,0,0,1,8.55,9Zm-159.6,57H352.8c-16.82,0-30.4,14.3-30.4,32v288c0,17.7,13.58,32,30.4,32H717.6c16.82,0,30.4-14.3,30.4-32v-288C748,434.9,734.32,420.6,717.6,420.6Zm-304,64c16.82,0,30.4,14.3,30.4,32s-13.58,32-30.4,32-30.4-14.3-30.4-32S396.78,484.6,413.6,484.6Zm273.6,224h-304v-32l60.8-64,30.4,32L596,516.6l91.2,96Z" transform="translate(-201.2 -90.5)"/></svg>