<svg id="Layer_1" data-name="Layer 1" xmlns="http://www.w3.org/2000/svg" viewBox="0 0 856.2 856.2"><defs><style>.cls-1{fill:#212121;}.cls-2,.cls-3{fill:#fff;}.cls-2{opacity:0.4;isolation:isolate;}</style></defs><path id="First_Icon:_212121" data-name="First Icon: #212121" class="cls-1" d="M956.64,946.7H302.16c-55.47,0-100.86-45.39-100.86-100.86V191.36c0-55.47,45.39-100.86,100.86-100.86H956.64c55.47,0,100.86,45.39,100.86,100.86V845.84C1057.5,901.31,1012.11,946.7,956.64,946.7Z" transform="translate(-201.3 -90.5)"/><g id="Syncer"><path class="cls-2" d="M934.4,485.5h-280v-40h-48v40h-280a16,16,0,0,0-16,16v16a16,16,0,0,0,16,16h104v40h48v-40h304v40h48v-40h104a16,16,0,0,0,16-16v-16A16,16,0,0,0,934.4,485.5Z" transform="translate(-201.3 -90.5)"/><path class="cls-3" d="M534.4,445.5h192a32,32,0,0,0,32-32v-128a32,32,0,0,0-32-32h-192a32,32,0,0,0-32,32v128A32,32,0,0,0,534.4,445.5Zm32-128h128v64h-128Zm320,256h-160a32,32,0,0,0-32,32v128a32,32,0,0,0,32,32h160a32,32,0,0,0,32-32v-128A32,32,0,0,0,886.4,573.5Zm-32,128h-96v-64h96Zm-320-128h-160a32,32,0,0,0-32,32v128a32,32,0,0,0,32,32h160a32,32,0,0,0,32-32v-128A32,32,0,0,0,534.4,573.5Zm-32,128h-96v-64h96Z" transform="translate(-201.3 -90.5)"/></g></svg>