<svg id="Layer_1" data-name="Layer 1" xmlns="http://www.w3.org/2000/svg" viewBox="0 0 856.2 856.2"><defs><style>.cls-1{fill:#eaeaea;}</style></defs><path id="Tenth_Icon:_D1D1D1" data-name="Tenth Icon: #D1D1D1" class="cls-1" d="M955.48,946.7H301c-55.47,0-100.86-45.39-100.86-100.86V191.36C200.15,135.89,245.54,90.5,301,90.5H955.48c55.48,0,100.87,45.39,100.87,100.86V845.84C1056.35,901.31,1011,946.7,955.48,946.7Z" transform="translate(-200.15 -90.5)"/><path d="M751.7,557.47,628.25,676.2,504.79,557.47c-83.52,7.15-149.27,73.77-149.27,156v48.71c0,31,26.18,56.2,58.44,56.2H842.53c32.26,0,58.44-25.17,58.44-56.2V713.44C901,631.24,835.22,564.62,751.7,557.47ZM394.48,443.66a118.49,118.49,0,0,0,84.26-34.77C497.12,472,556.66,518.6,628.25,518.6c86.08,0,155.84-67.09,155.84-149.88S714.33,218.85,628.25,218.85c-61.37,0-114,34.42-139.41,84.07a117.78,117.78,0,0,0-94.36-46.6c0,39.1,20.82,73.53,52.48,93.67C415.3,370.13,394.48,404.55,394.48,443.66ZM569.81,331.25H686.69c21.55,0,39,16.75,39,37.47H530.85C530.85,348,548.26,331.25,569.81,331.25Z" transform="translate(-200.15 -90.5)"/></svg>