<svg id="Layer_1" data-name="Layer 1" xmlns="http://www.w3.org/2000/svg" viewBox="0 0 856.2 856.2"><defs><style>.cls-1{fill:#b5b5b5;}.cls-2{fill:#fff;}</style></defs><path id="Ninth_Icon:_D1D1D1" data-name="Ninth Icon: #D1D1D1" class="cls-1" d="M954.64,946.7H300.16c-55.47,0-100.86-45.39-100.86-100.86V191.36c0-55.47,45.39-100.86,100.86-100.86H954.64c55.47,0,100.86,45.39,100.86,100.86V845.84C1055.5,901.31,1010.11,946.7,954.64,946.7Z" transform="translate(-199.3 -90.5)"/><path id="Misc_Tweaks" data-name="Misc Tweaks" class="cls-2" d="M491.27,255.19a13.36,13.36,0,0,0-19.44,0l0,0-72.92,75.56-26-26.4a13.36,13.36,0,0,0-19.44,0l0,0-18,18.76a14.76,14.76,0,0,0,0,20.26l0,0L389.94,400a14.2,14.2,0,0,0,20.16,0L428,381.33l82.68-86.16a14.86,14.86,0,0,0,.1-20.29Zm0,190a13.36,13.36,0,0,0-19.44,0l0,0-72.92,76.05-26-26.37a13.36,13.36,0,0,0-19.44,0l0,0-18,18.72a14.75,14.75,0,0,0,0,20.25l0,0,54.36,56.69a14.18,14.18,0,0,0,20.15,0l18-18.73,82.68-86.19a14.76,14.76,0,0,0,.1-20.17ZM404.69,652c-30.34,0-55.64,25.66-55.64,57.28s25.32,57.29,55.64,57.29,55-25.65,55-57.29S435,652,404.69,652Zm494.68,19.09H569.58c-10.12,0-18.32,8.55-18.32,19.1v38.19c0,10.54,8.2,19.09,18.32,19.09H899.37c10.12,0,18.32-8.55,18.32-19.09V690.22C917.69,679.67,909.49,671.12,899.37,671.12Zm0-381.91H569.58c-10.12,0-18.32,8.54-18.32,19.09v38.19c0,10.55,8.2,19.1,18.32,19.1H899.37c10.12,0,18.32-8.55,18.32-19.1V308.3C917.69,297.75,909.49,289.21,899.37,289.21Zm0,191H569.58c-10.12,0-18.32,8.55-18.32,19.1v38.19c0,10.55,8.2,19.1,18.32,19.1H899.37c10.12,0,18.32-8.55,18.32-19.1V499.26C917.69,488.71,909.49,480.16,899.37,480.16Z" transform="translate(-199.3 -90.5)"/></svg>