<svg id="Layer_1" data-name="Layer 1" xmlns="http://www.w3.org/2000/svg" viewBox="0 0 856.2 856.2"><defs><style>.cls-1{fill:#190842;}.cls-2{fill:#fff;}</style></defs><path id="Second_Icon:_260c47" data-name="Second Icon: #260c47" class="cls-1" d="M956.64,946.7H302.16c-55.47,0-100.86-45.39-100.86-100.86V191.36c0-55.47,45.39-100.86,100.86-100.86H956.64c55.47,0,100.86,45.39,100.86,100.86V845.84C1057.5,901.31,1012.11,946.7,956.64,946.7Z" transform="translate(-201.3 -90.5)"/><path id="Key" class="cls-2" d="M702,279.15c93,0,168.42,71.59,168.42,159.91S795,599,702,599a175.75,175.75,0,0,1-62.76-11.49l-49.52,47H552.28v53.31H496.14v53.3H383.86V634.51l156.93-149a152.25,152.25,0,0,1-7.22-46.45c0-88.32,75.4-159.91,168.42-159.91m0-53.31c-124,0-224.56,95.45-224.56,213.22a203.7,203.7,0,0,0,2.1,29.23L335.94,604.63a26,26,0,0,0-8.22,18.84v144.3c0,14.72,12.57,26.66,28.07,26.66H524.21c15.5,0,28.07-11.94,28.07-26.66V741.12h28.07c15.5,0,28.07-11.93,28.07-26.65V692.26l46.84-44.61A236.08,236.08,0,0,0,702,652.28c124,0,224.56-95.45,224.56-213.22S826,225.84,702,225.84Zm0,159.92c0,29.44,25.13,53.3,56.14,53.3s56.14-23.86,56.14-53.3-25.14-53.31-56.14-53.31S702,356.32,702,385.76Z" transform="translate(-201.3 -90.5)"/></svg>