<svg id="Layer_1" data-name="Layer 1" xmlns="http://www.w3.org/2000/svg" viewBox="0 0 856.2 856.2"><defs><style>.cls-1{fill:#190842;}.cls-2{fill:#fff;}</style></defs><path id="Second_Icon:_260c47" data-name="Second Icon: #260c47" class="cls-1" d="M956.64,946.7H302.16c-55.47,0-100.86-45.39-100.86-100.86V191.36c0-55.47,45.39-100.86,100.86-100.86H956.64c55.47,0,100.86,45.39,100.86,100.86V845.84C1057.5,901.31,1012.11,946.7,956.64,946.7Z" transform="translate(-201.3 -90.5)"/><path id="Themeless" class="cls-2" d="M605.42,324h41.47c11.45,0,20.73-8.35,20.73-18.65V268.05c0-10.3-9.28-18.65-20.73-18.65H605.42c-11.45,0-20.73,8.35-20.73,18.65v37.31C584.69,315.66,594,324,605.42,324Zm124.4,0h41.47c11.45,0,20.73-8.35,20.73-18.65V268.05c0-10.3-9.28-18.65-20.73-18.65H729.82c-11.45,0-20.73,8.35-20.73,18.65v37.31C709.09,315.66,718.37,324,729.82,324ZM481,324h41.47c11.45,0,20.73-8.35,20.73-18.65V268.05c0-10.3-9.28-18.65-20.73-18.65H481c-11.45,0-20.73,8.35-20.73,18.65v37.31C460.29,315.66,469.57,324,481,324ZM356.62,547.85h41.47c11.45,0,20.73-8.35,20.73-18.66v-37.3c0-10.3-9.28-18.65-20.73-18.65H356.62c-11.45,0-20.73,8.35-20.73,18.65v37.3C335.89,539.5,345.17,547.85,356.62,547.85Zm0-111.92h41.47c11.45,0,20.73-8.35,20.73-18.65V380c0-10.3-9.28-18.65-20.73-18.65H356.62c-11.45,0-20.73,8.35-20.73,18.65v37.31C335.89,427.58,345.17,435.93,356.62,435.93Zm0-111.92h41.47c11.45,0,20.73-8.35,20.73-18.65V268.05c0-10.3-9.28-18.65-20.73-18.65H356.62c-11.45,0-20.73,8.35-20.73,18.65v37.31C335.89,315.66,345.17,324,356.62,324Zm0,335.75h41.47c11.45,0,20.73-8.35,20.73-18.65V603.8c0-10.3-9.28-18.65-20.73-18.65H356.62c-11.45,0-20.73,8.35-20.73,18.65v37.31C335.89,651.41,345.17,659.76,356.62,659.76ZM895.69,249.4H854.22c-11.45,0-20.73,8.35-20.73,18.65v429H356.62c-11.45,0-20.73,8.35-20.73,18.65V753c0,10.3,9.28,18.65,20.73,18.65H875c22.9,0,41.47-16.7,41.47-37.31V268.05C916.42,257.75,907.14,249.4,895.69,249.4Z" transform="translate(-201.3 -90.5)"/></svg>