<svg id="Layer_1" data-name="Layer 1" xmlns="http://www.w3.org/2000/svg" viewBox="0 0 856.2 856.2"><defs><style>.cls-1{fill:#681051;}.cls-2{fill:#fff;}</style></defs><path id="Fourth_Icon:_681051" data-name="Fourth Icon: #681051" class="cls-1" d="M956.64,946.7H302.16c-55.47,0-100.86-45.39-100.86-100.86V191.36c0-55.47,45.39-100.86,100.86-100.86H956.64c55.47,0,100.86,45.39,100.86,100.86V845.84C1057.5,901.31,1012.11,946.7,956.64,946.7Z" transform="translate(-201.3 -90.5)"/><path id="Widget_Manager" data-name="Widget Manager" class="cls-2" d="M853.3,255.69h-448a32,32,0,0,0-32,32v448a32,32,0,0,0,32,32h448a32,32,0,0,0,32-32v-448A32,32,0,0,0,853.3,255.69Zm-16,464h-416v-416h416Zm-48-48v-160h-160v160Zm-160-320h-160v160h160Z" transform="translate(-201.3 -90.5)"/></svg>