<svg id="Layer_1" data-name="Layer 1" xmlns="http://www.w3.org/2000/svg" viewBox="0 0 856.2 856.2"><defs><style>.cls-1{fill:#421872;}.cls-2{fill:#fff;}</style></defs><path id="Third_Icon:_320A51" data-name="Third Icon: #320A51" class="cls-1" d="M956.64,946.7H302.16c-55.47,0-100.86-45.39-100.86-100.86V191.36c0-55.47,45.39-100.86,100.86-100.86H956.64c55.47,0,100.86,45.39,100.86,100.86V845.84C1057.5,901.31,1012.11,946.7,956.64,946.7Z" transform="translate(-201.3 -90.5)"/><path id="WordPress" class="cls-2" d="M621.84,235.4c-171.21,0-310.6,126.08-310.6,281.2s139.39,281.2,310.6,281.2S932.43,671.6,932.43,516.6,793,235.4,621.84,235.4ZM342.55,516.6a231.09,231.09,0,0,1,24.17-102.84L500,744.17C406.8,703.13,342.55,616.61,342.55,516.6ZM621.84,769.46a305.34,305.34,0,0,1-78.91-10.32l83.79-220.43,85.79,212.95a32.53,32.53,0,0,0,2,3.51A305.85,305.85,0,0,1,621.84,769.46Zm38.44-371.35c16.79-.8,31.94-2.38,31.94-2.38,15-1.59,13.28-21.66-1.75-20.87,0,0-45.22,3.18-74.4,3.18-27.42,0-73.51-3.18-73.51-3.18-15-.79-16.78,20.07-1.75,20.87,0,0,14.27,1.58,29.3,2.38l43.46,107.94L552.45,671.94,450.76,398.11c16.78-.8,31.93-2.38,31.93-2.38,15-1.59,13.28-21.66-1.75-20.87,0,0-45.21,3.18-74.39,3.18-5.26,0-11.4-.11-18-.34,50-68.6,135.76-114,233.33-114,72.63,0,138.89,25.17,188.61,66.33-1.26-.11-2.38-.22-3.64-.22-27.42,0-46.84,21.66-46.84,44.9,0,20.86,13.28,38.44,27.43,59.3,10.65,16.78,23.05,38.44,23.05,69.74,0,21.65-9.15,46.71-21.29,81.75l-27.81,84.25L660.28,398.11Zm102,337,85.29-223.26c15.9-36.06,21.29-64.86,21.29-90.6a169.09,169.09,0,0,0-1.88-26A233.37,233.37,0,0,1,901.12,516.6C901.12,609.92,845.26,691.33,762.23,735.1Z" transform="translate(-201.3 -90.5)"/></svg>